#!OML:ASF E:\Steps\Project 1\Capture day 1\Session 2\Subject.ASF
:FULLY-SPECIFIED
:DEGREES
438
root -0.742827 18.045 20.576 -156.623 0.745913 181.138
lowerback -22.2063 -2.61214 -8.08555
upperback 0.861156 -1.2789 0.877184
thorax 13.7662 -1.14817 5.227
lowerneck 0.212888 -6.85093 -0.26397
upperneck 25.325 -7.41547 1.1346
head 7.81818 -2.58472 0.0574512
rclavicle 4.17448e-015 5.96354e-015
rhumerus -40.4807 -17.0885 -75.8903
rradius 30.0893
rwrist -0.10949
rhand -8.08036 -57.0951
rfingers 7.12502
rthumb 17.8315 633.702
lclavicle 4.17448e-015 5.96354e-015
lhumerus -27.4717 -2.94514 81.7307
lradius 24.2453
lwrist -0.581936
lhand -22.5163 -13.421
lfingers 7.12502
lthumb 3.9102 16.5229
rfemur -36.3688 5.35241 5.89584
rtibia 15.1935
rfoot -18.5652 -14.4015
rtoes -28.1666
lfemur -22.7355 -9.23094 -18.4709
ltibia 12.8216
lfoot -11.5031 4.7709
ltoes -34.9397
439
root -0.719046 18.0411 20.553 -156.658 0.652209 181.221
lowerback -22.4145 -2.61004 -7.98482
upperback 1.03319 -1.2928 0.903072
thorax 14.0895 -1.17164 5.19202
lowerneck 0.114577 -6.88955 -0.275115
upperneck 25.1383 -7.52835 1.2068
head 7.77711 -2.65342 0.0719574
rclavicle 1.05356e-014 3.97569e-016
rhumerus -40.3127 -17.1602 -75.9231
rradius 30.0462
rwrist -0.232175
rhand -8.57334 -56.4522
rfingers 7.12502
rthumb 17.3571 634.303
lclavicle 1.05356e-014 3.97569e-016
lhumerus -27.2902 -3.02192 81.6876
lradius 24.4259
lwrist -0.329104
lhand -22.5741 -13.208
lfingers 7.12502
lthumb 3.85437 16.7369
rfemur -36.213 5.59091 5.49935
rtibia 14.7884
rfoot -18.3117 -14.4659
rtoes -27.858
lfemur -22.6878 -9.5347 -18.2272
ltibia 12.9762
lfoot -11.7003 5.00891
ltoes -34.6083
440
root -0.692827 18.0387 20.5288 -156.732 0.493218 181.22
lowerback -22.3985 -2.63663 -7.99881
upperback 1.05842 -1.32665 0.902665
thorax 14.1161 -1.19063 5.18762
lowerneck 0.164648 -6.86003 -0.136986
upperneck 25.1611 -7.46721 1.13348
head 7.76619 -2.6126 0.031387
rclavicle -1.13307e-014 1.94809e-014
rhumerus -40.5066 -17.3325 -75.8086
rradius 30.0204
rwrist -0.260038
rhand -8.95502 -58.2943
rfingers 7.12502
rthumb 16.9897 632.429
lclavicle -1.13307e-014 1.94809e-014
lhumerus -27.2659 -3.05831 81.6031
lradius 24.5327
lwrist -0.21132
lhand -22.8231 -13.0544
lfingers 7.12502
lthumb 3.6139 16.8947
rfemur -36.0271 5.73816 5.10389
rtibia 14.4263
rfoot -18.1281 -14.5877
rtoes -27.7718
lfemur -22.5811 -9.7531 -18.1037
ltibia 13.1185
lfoot -11.8278 5.1802
ltoes -34.9983
441
root -0.660357 18.0361 20.5115 -156.699 0.246677 181.294
lowerback -22.4408 -2.6809 -7.93341
upperback 1.02858 -1.39619 0.898117
thorax 14.1136 -1.21437 5.12066
lowerneck 0.202838 -6.82223 -0.000896615
upperneck 25.3085 -7.3773 1.06695
head 7.79971 -2.54745 -0.00538751
rclavicle 9.34288e-015 -7.55382e-015
rhumerus -40.7373 -17.5391 -75.7456
rradius 29.938
rwrist -0.0633213
rhand -8.74112 -57.5437
rfingers 7.12502
rthumb 17.1956 633.197
lclavicle 9.34288e-015 -7.55382e-015
lhumerus -27.2359 -3.21194 81.472
lradius 24.5342
lwrist -0.244432
lhand -23.0307 -12.9803
lfingers 7.12502
lthumb 3.41347 16.9721
rfemur -36.0223 5.73984 4.90499
rtibia 14.1929
rfoot -18.0613 -14.6487
rtoes -26.6648
lfemur -22.7026 -9.6513 -17.865
ltibia 13.3733
lfoot -11.9273 5.06583
ltoes -35.6855
442
root -0.63519 18.0335 20.4838 -156.798 0.13363 181.465
lowerback -22.4405 -2.6825 -7.85183
upperback 1.03768 -1.44356 1.03588
thorax 14.1329 -1.23983 5.21657
lowerneck 0.213443 -6.85173 -0.148964
upperneck 25.3894 -7.39124 1.05311
head 7.8312 -2.56249 0.0136462
rclavicle 1.98785e-015 3.57812e-015
rhumerus -40.7973 -17.1728 -75.7406
rradius 29.8132
rwrist -0.540588
rhand -9.78978 -58.8176
rfingers 7.12502
rthumb 16.1861 631.838
lclavicle 1.98785e-015 3.57812e-015
lhumerus -27.2674 -3.10262 81.567
lradius 24.4942
lwrist -0.407417
lhand -22.9933 -12.9031
lfingers 7.12502
lthumb 3.44957 17.0488
rfemur -35.8264 5.70046 4.82625
rtibia 13.9015
rfoot -17.8365 -14.5025
rtoes -25.8135
lfemur -22.5733 -9.69091 -17.5733
ltibia 13.4964
lfoot -12.0801 5.09493
ltoes -35.5858
443
root -0.608658 18.0292 20.4573 -156.789 -0.0144809 181.491
lowerback -22.2507 -2.71521 -7.79433
upperback 0.888695 -1.5189 1.05995
thorax 13.8573 -1.25192 5.18724
lowerneck 0.207451 -6.94826 -0.188234
upperneck 25.5841 -7.48731 1.00878
head 7.89918 -2.60063 -0.00145043
rclavicle -8.34896e-015 -5.56597e-015
rhumerus -41.1929 -17.1195 -75.5755
rradius 29.7792
rwrist -0.344608
rhand -9.19068 -59.2633
rfingers 7.12502
rthumb 16.7629 631.44
lclavicle -8.34896e-015 -5.56597e-015
lhumerus -27.6036 -3.05387 81.5135
lradius 24.6685
lwrist -0.521295
lhand -22.8084 -12.7776
lfingers 7.12502
lthumb 3.62816 17.1712
rfemur -35.731 5.6377 4.59491
rtibia 13.7
rfoot -17.6946 -14.3843
rtoes -25.753
lfemur -22.532 -9.8325 -17.4261
ltibia 13.6044
lfoot -12.2859 5.06101
ltoes -35.5048
444
root -0.579674 18.0255 20.4263 -156.8 -0.182797 181.439
lowerback -22.1777 -2.77964 -7.87377
upperback 0.819801 -1.59221 1.09448
thorax 13.7497 -1.2846 5.2487
lowerneck 0.205531 -6.95632 -0.171803
upperneck 25.6657 -7.46349 0.906852
head 7.92192 -2.58921 -0.0361319
rclavicle 0 -2.0276e-014
rhumerus -41.5079 -17.2543 -75.346
rradius 29.7482
rwrist -0.319644
rhand -8.8808 -58.0798
rfingers 7.12502
rthumb 17.0612 632.649
lclavicle 0 -2.0276e-014
lhumerus -27.84 -2.94608 81.4672
lradius 24.9159
lwrist -0.606793
lhand -22.4536 -12.9234
lfingers 7.12502
lthumb 3.97075 17.0194
rfemur -35.5482 5.53097 4.32796
rtibia 13.376
rfoot -17.482 -14.4142
rtoes -26.2039
lfemur -22.4512 -10.0496 -17.3554
ltibia 13.7238
lfoot -12.446 5.13182
ltoes -36.3303
445
root -0.546753 18.0217 20.3979 -156.791 -0.248839 181.459
lowerback -22.4817 -2.7808 -7.87076
upperback 0.945124 -1.5658 1.07667
thorax 14.0682 -1.28976 5.2329
lowerneck 0.234228 -6.8288 -0.118314
upperneck 25.5659 -7.30949 0.98413
head 7.88243 -2.50833 -0.00767521
rclavicle -1.55052e-014 -3.02153e-014
rhumerus -41.386 -17.6873 -75.1355
rradius 29.484
rwrist 0.411398
rhand -8.76024 -57.1922
rfingers 7.12502
rthumb 17.1772 633.547
lclavicle -1.55052e-014 -3.02153e-014
lhumerus -27.7049 -3.15179 81.3909
lradius 25.0855
lwrist -0.325393
lhand -22.3432 -13.2845
lfingers 7.12502
lthumb 4.07734 16.6563
rfemur -35.4983 5.63246 4.09351
rtibia 13.1637
rfoot -17.1525 -14.6344
rtoes -27.192
lfemur -22.467 -10.0494 -17.2237
ltibia 13.9601
lfoot -12.5547 5.25922
ltoes -37.8875
446
root -0.51332 18.0178 20.3754 -156.77 -0.243944 181.453
lowerback -22.7511 -2.75218 -7.92849
upperback 1.05556 -1.48537 1.05532
thorax 14.3439 -1.2726 5.26766
lowerneck 0.272618 -6.78026 -0.109795
upperneck 25.5222 -7.26604 1.11663
head 7.86557 -2.47531 0.039034
rclavicle -8.74653e-015 -2.06736e-014
rhumerus -41.3143 -17.6443 -75.2576
rradius 29.4614
rwrist -0.130914
rhand -9.39441 -58.2429
rfingers 7.12502
rthumb 16.5667 632.444
lclavicle -8.74653e-015 -2.06736e-014
lhumerus -27.5398 -3.46031 81.3863
lradius 25.1848
lwrist -0.126552
lhand -22.6248 -13.3681
lfingers 7.12502
lthumb 3.80548 16.5777
rfemur -35.6023 5.88228 3.76852
rtibia 13.188
rfoot -17.1701 -14.7399
rtoes -28.0826
lfemur -22.5212 -10.0137 -17.1226
ltibia 14.2006
lfoot -12.662 5.46535
ltoes -39.3555
